<mxfile host="app.diagrams.net" modified="2022-11-22T13:53:53.898Z" agent="5.0 (Windows NT 10.0; Win64; x64) AppleWebKit/537.36 (KHTML, like Gecko) Chrome/107.0.0.0 Safari/537.36" etag="icpCQlFxA9ZqSM9O0sce" version="20.5.3" type="github">
  <diagram id="ZfACedrdzwrRypN2LxNw" name="Halaman-1">
    <mxGraphModel dx="868" dy="450" grid="1" gridSize="10" guides="1" tooltips="1" connect="1" arrows="1" fold="1" page="1" pageScale="1" pageWidth="827" pageHeight="1169" math="0" shadow="0">
      <root>
        <mxCell id="0" />
        <mxCell id="1" parent="0" />
        <mxCell id="eip9IgvtDJt3whue_GQW-1" value="user" style="rounded=0;whiteSpace=wrap;html=1;" vertex="1" parent="1">
          <mxGeometry x="40" y="50" width="60" height="40" as="geometry" />
        </mxCell>
        <mxCell id="eip9IgvtDJt3whue_GQW-2" value="items" style="rounded=0;whiteSpace=wrap;html=1;" vertex="1" parent="1">
          <mxGeometry x="250" y="40" width="120" height="60" as="geometry" />
        </mxCell>
        <mxCell id="eip9IgvtDJt3whue_GQW-3" value="order" style="rounded=0;whiteSpace=wrap;html=1;" vertex="1" parent="1">
          <mxGeometry x="470" y="40" width="120" height="60" as="geometry" />
        </mxCell>
        <mxCell id="eip9IgvtDJt3whue_GQW-9" value="id_user" style="ellipse;whiteSpace=wrap;html=1;rounded=0;" vertex="1" parent="1">
          <mxGeometry x="35" y="190" width="70" height="30" as="geometry" />
        </mxCell>
        <mxCell id="eip9IgvtDJt3whue_GQW-11" value="username" style="ellipse;whiteSpace=wrap;html=1;rounded=0;" vertex="1" parent="1">
          <mxGeometry x="80" y="140" width="80" height="40" as="geometry" />
        </mxCell>
        <mxCell id="eip9IgvtDJt3whue_GQW-14" value="email" style="ellipse;whiteSpace=wrap;html=1;rounded=0;" vertex="1" parent="1">
          <mxGeometry y="130" width="60" height="40" as="geometry" />
        </mxCell>
        <mxCell id="eip9IgvtDJt3whue_GQW-16" value="" style="endArrow=none;html=1;rounded=0;" edge="1" parent="1" source="eip9IgvtDJt3whue_GQW-14">
          <mxGeometry width="50" height="50" relative="1" as="geometry">
            <mxPoint x="70" y="180" as="sourcePoint" />
            <mxPoint x="65" y="90" as="targetPoint" />
          </mxGeometry>
        </mxCell>
        <mxCell id="eip9IgvtDJt3whue_GQW-17" value="" style="endArrow=none;html=1;rounded=0;entryX=0.5;entryY=1;entryDx=0;entryDy=0;entryPerimeter=0;" edge="1" parent="1" target="eip9IgvtDJt3whue_GQW-1">
          <mxGeometry width="50" height="50" relative="1" as="geometry">
            <mxPoint x="120" y="140" as="sourcePoint" />
            <mxPoint x="140" y="100" as="targetPoint" />
          </mxGeometry>
        </mxCell>
        <mxCell id="eip9IgvtDJt3whue_GQW-23" value="kode_barang" style="ellipse;whiteSpace=wrap;html=1;" vertex="1" parent="1">
          <mxGeometry x="220" y="120" width="90" height="50" as="geometry" />
        </mxCell>
        <mxCell id="eip9IgvtDJt3whue_GQW-24" value="nama barang" style="ellipse;whiteSpace=wrap;html=1;" vertex="1" parent="1">
          <mxGeometry x="340" y="120" width="90" height="50" as="geometry" />
        </mxCell>
        <mxCell id="eip9IgvtDJt3whue_GQW-32" value="" style="endArrow=none;html=1;rounded=0;entryX=0.249;entryY=0.09;entryDx=0;entryDy=0;entryPerimeter=0;" edge="1" parent="1" source="eip9IgvtDJt3whue_GQW-23" target="eip9IgvtDJt3whue_GQW-24">
          <mxGeometry width="50" height="50" relative="1" as="geometry">
            <mxPoint x="260" y="200" as="sourcePoint" />
            <mxPoint x="310" y="150" as="targetPoint" />
            <Array as="points">
              <mxPoint x="310" y="100" />
            </Array>
          </mxGeometry>
        </mxCell>
        <mxCell id="eip9IgvtDJt3whue_GQW-33" value="" style="endArrow=none;html=1;rounded=0;entryX=0.5;entryY=1;entryDx=0;entryDy=0;exitX=0.5;exitY=0;exitDx=0;exitDy=0;" edge="1" parent="1" source="eip9IgvtDJt3whue_GQW-9" target="eip9IgvtDJt3whue_GQW-1">
          <mxGeometry width="50" height="50" relative="1" as="geometry">
            <mxPoint x="130" y="150" as="sourcePoint" />
            <mxPoint x="80" y="100" as="targetPoint" />
          </mxGeometry>
        </mxCell>
        <mxCell id="eip9IgvtDJt3whue_GQW-34" value="id_order" style="ellipse;whiteSpace=wrap;html=1;" vertex="1" parent="1">
          <mxGeometry x="440" y="120" width="80" height="40" as="geometry" />
        </mxCell>
        <mxCell id="eip9IgvtDJt3whue_GQW-35" value="status order" style="ellipse;whiteSpace=wrap;html=1;" vertex="1" parent="1">
          <mxGeometry x="550" y="120" width="80" height="35" as="geometry" />
        </mxCell>
        <mxCell id="eip9IgvtDJt3whue_GQW-36" value="" style="endArrow=none;html=1;rounded=0;exitX=0.5;exitY=0;exitDx=0;exitDy=0;" edge="1" parent="1" source="eip9IgvtDJt3whue_GQW-34">
          <mxGeometry width="50" height="50" relative="1" as="geometry">
            <mxPoint x="490" y="150" as="sourcePoint" />
            <mxPoint x="540" y="100" as="targetPoint" />
          </mxGeometry>
        </mxCell>
        <mxCell id="eip9IgvtDJt3whue_GQW-37" value="" style="endArrow=none;html=1;rounded=0;entryX=0.282;entryY=-0.022;entryDx=0;entryDy=0;entryPerimeter=0;" edge="1" parent="1" target="eip9IgvtDJt3whue_GQW-35">
          <mxGeometry width="50" height="50" relative="1" as="geometry">
            <mxPoint x="540" y="100" as="sourcePoint" />
            <mxPoint x="550" y="110" as="targetPoint" />
          </mxGeometry>
        </mxCell>
      </root>
    </mxGraphModel>
  </diagram>
</mxfile>
